<?xml version="1.0" encoding="UTF-8" standalone="no"?>
<!-- Created with Inkscape (http://www.inkscape.org/) -->

<svg
   xmlns:dc="http://purl.org/dc/elements/1.1/"
   xmlns:cc="http://creativecommons.org/ns#"
   xmlns:rdf="http://www.w3.org/1999/02/22-rdf-syntax-ns#"
   xmlns:svg="http://www.w3.org/2000/svg"
   xmlns="http://www.w3.org/2000/svg"
   xmlns:sodipodi="http://sodipodi.sourceforge.net/DTD/sodipodi-0.dtd"
   xmlns:inkscape="http://www.inkscape.org/namespaces/inkscape"
   width="198.01617"
   height="61.86924"
   viewBox="0 0 52.39178 16.369569"
   version="1.1"
   id="svg4684"
   inkscape:version="0.92.0 r15299"
   sodipodi:docname="airlink 2020.svg">
  <defs
     id="defs4678">
    <clipPath
       id="clipPath3792"
       clipPathUnits="userSpaceOnUse">
      <path
         inkscape:connector-curvature="0"
         id="path3790"
         d="M 0,0 H 595.275 V 779.528 H 0 Z" />
    </clipPath>
    <clipPath
       id="clipPath3728"
       clipPathUnits="userSpaceOnUse">
      <path
         inkscape:connector-curvature="0"
         id="path3726"
         d="M 0,0 H 595.275 V 779.528 H 0 Z" />
    </clipPath>
    <linearGradient
       id="linearGradient3710"
       spreadMethod="pad"
       gradientTransform="matrix(-0.50296366,9.5971181,-9.5971181,-0.50296366,-0.48146597,147.22607)"
       gradientUnits="userSpaceOnUse"
       y2="0"
       x2="1"
       y1="0"
       x1="0">
      <stop
         id="stop3706"
         offset="0"
         style="stop-opacity:1;stop-color:#ffe4af" />
      <stop
         id="stop3708"
         offset="1"
         style="stop-opacity:1;stop-color:#cd8215" />
    </linearGradient>
    <clipPath
       id="clipPath3684"
       clipPathUnits="userSpaceOnUse">
      <path
         inkscape:connector-curvature="0"
         id="path3682"
         d="M 0,0 H 595.275 V 779.528 H 0 Z" />
    </clipPath>
    <clipPath
       id="clipPath3588"
       clipPathUnits="userSpaceOnUse">
      <path
         inkscape:connector-curvature="0"
         id="path3586"
         d="M 0,0 H 595.275 V 779.528 H 0 Z" />
    </clipPath>
  </defs>
  <sodipodi:namedview
     id="base"
     pagecolor="#ffffff"
     bordercolor="#666666"
     borderopacity="1.0"
     inkscape:pageopacity="0.0"
     inkscape:pageshadow="2"
     inkscape:zoom="4.6645915"
     inkscape:cx="98.508091"
     inkscape:cy="30.434619"
     inkscape:document-units="mm"
     inkscape:current-layer="layer1"
     showgrid="false"
     fit-margin-top="0"
     fit-margin-left="0"
     fit-margin-right="0"
     fit-margin-bottom="0"
     units="px"
     inkscape:window-width="1280"
     inkscape:window-height="744"
     inkscape:window-x="-4"
     inkscape:window-y="-4"
     inkscape:window-maximized="1" />
  <metadata
     id="metadata4681">
    <rdf:RDF>
      <cc:Work
         rdf:about="">
        <dc:format>image/svg+xml</dc:format>
        <dc:type
           rdf:resource="http://purl.org/dc/dcmitype/StillImage" />
        <dc:title></dc:title>
      </cc:Work>
    </rdf:RDF>
  </metadata>
  <g
     inkscape:label="Layer 1"
     inkscape:groupmode="layer"
     id="layer1"
     transform="translate(13.590384,-140.51626)">
    <g
       id="g5188"
       transform="translate(0.13229084,-0.13228446)">
      <path
         d="m -11.100387,151.45722 c 0.128411,-2.49908 2.3152805,-4.41325 4.8849138,-4.27496 2.5692805,0.13794 4.548011,2.27577 4.4195999,4.77485 -0.1284111,2.49943 -2.3156333,4.41325 -4.8849138,4.27531 -2.5692805,-0.13829 -4.5480109,-2.27612 -4.4195999,-4.7752"
         style="fill:#ffffff;fill-opacity:1;fill-rule:nonzero;stroke:none;stroke-width:0.35277778"
         id="path3592"
         inkscape:connector-curvature="0" />
      <path
         d="m -11.100387,151.45722 c 0.128411,-2.49908 2.3152805,-4.41325 4.8849138,-4.27496 2.5692805,0.13794 4.548011,2.27577 4.4195999,4.77485 -0.1284111,2.49943 -2.3156333,4.41325 -4.8849138,4.27531 -2.5692805,-0.13829 -4.5480109,-2.27612 -4.4195999,-4.7752 z"
         style="fill:none;stroke:#ffffff;stroke-width:0.50694168;stroke-linecap:butt;stroke-linejoin:round;stroke-miterlimit:3.86400008;stroke-dasharray:none;stroke-opacity:1"
         id="path3596"
         inkscape:connector-curvature="0" />
      <path
         d="m -8.2357612,150.96887 c 0,0 0.5041194,-0.49389 0.059619,-1.16311 -0.00423,-0.006 0.2589389,0.0836 0.5118806,0.10619 0.0067,7e-4 0.011994,-0.12065 0.0127,-0.13723 -0.5563306,-0.16334 -1.3462,-0.45085 -1.4862528,-0.8001 0,0 0.9165167,0.44097 1.5151806,0.48542 0,0 0.047978,-0.14993 0.047272,-0.15028 -0.5954889,-0.14711 -1.8340916,-0.51647 -2.0838583,-1.08233 0,0 1.2954,0.7045 2.1628805,0.80822 0.00529,7e-4 0.063147,-0.15029 0.063147,-0.15029 -0.555625,-0.16016 -1.7367249,-0.74295 -2.3057555,-1.7272 0,0 1.3913555,1.15112 2.4440444,1.45839 -0.00212,-10e-4 0.1086556,-0.15064 0.1097139,-0.1524 -0.6152444,-0.32385 -2.0842111,-0.96167 -2.4031222,-2.01401 -0.00635,-0.0198 1.3574889,1.2827 1.6644055,1.21849 0,0 -1.5247055,-1.2513 -1.6665221,-1.98472 0,0 2.5639888,2.54388 2.8183416,2.70545 0.1252361,0.0794 0.2963333,0.4191 0.2963333,0.4191 0,0 0.56515,1.39453 1.5568083,1.73002 0.019755,0.007 -1.2961055,-0.17639 -1.8404416,-0.0363 -0.5912556,0.15204 -1.476375,0.46672 -1.476375,0.46672"
         style="fill:#ffffff;fill-opacity:1;fill-rule:nonzero;stroke:none;stroke-width:0.35277778"
         id="path3600"
         inkscape:connector-curvature="0" />
      <path
         d="m -8.2357612,150.96887 c 0,0 0.5041194,-0.49389 0.059619,-1.16311 -0.00423,-0.006 0.2589389,0.0836 0.5118806,0.10619 0.0067,7e-4 0.011994,-0.12065 0.0127,-0.13723 -0.5563306,-0.16334 -1.3462,-0.45085 -1.4862528,-0.8001 0,0 0.9165167,0.44097 1.5151806,0.48542 0,0 0.047978,-0.14993 0.047272,-0.15028 -0.5954889,-0.14711 -1.8340916,-0.51647 -2.0838583,-1.08233 0,0 1.2954,0.7045 2.1628805,0.80822 0.00529,7e-4 0.063147,-0.15029 0.063147,-0.15029 -0.555625,-0.16016 -1.7367249,-0.74295 -2.3057555,-1.7272 0,0 1.3913555,1.15112 2.4440444,1.45839 -0.00212,-10e-4 0.1086556,-0.15064 0.1097139,-0.1524 -0.6152444,-0.32385 -2.0842111,-0.96167 -2.4031222,-2.01401 -0.00635,-0.0198 1.3574889,1.2827 1.6644055,1.21849 0,0 -1.5247055,-1.2513 -1.6665221,-1.98472 0,0 2.5639888,2.54388 2.8183416,2.70545 0.1252361,0.0794 0.2963333,0.4191 0.2963333,0.4191 0,0 0.56515,1.39453 1.5568083,1.73002 0.019755,0.007 -1.2961055,-0.17639 -1.8404416,-0.0363 -0.5912556,0.15204 -1.476375,0.46672 -1.476375,0.46672 z"
         style="fill:none;stroke:#ffffff;stroke-width:0.50694168;stroke-linecap:butt;stroke-linejoin:round;stroke-miterlimit:3.86400008;stroke-dasharray:none;stroke-opacity:1"
         id="path3604"
         inkscape:connector-curvature="0" />
      <path
         d="m -9.0297229,144.86776 c 0,0 1.1482916,1.34126 1.7455444,1.76001 1.1267722,0.79022 1.1472333,1.76883 1.1264194,2.17099 0,0 -0.8092722,-1.18604 -1.2019138,-1.61043 -0.3929945,-0.42439 -1.3624278,-1.40053 -1.67005,-2.32057"
         style="fill:#ffffff;fill-opacity:1;fill-rule:nonzero;stroke:none;stroke-width:0.35277778"
         id="path3608"
         inkscape:connector-curvature="0" />
      <path
         d="m -9.0297229,144.86776 c 0,0 1.1482916,1.34126 1.7455444,1.76001 1.1267722,0.79022 1.1472333,1.76883 1.1264194,2.17099 0,0 -0.8092722,-1.18604 -1.2019138,-1.61043 -0.3929945,-0.42439 -1.3624278,-1.40053 -1.67005,-2.32057 z"
         style="fill:none;stroke:#ffffff;stroke-width:0.50694168;stroke-linecap:butt;stroke-linejoin:round;stroke-miterlimit:3.86400008;stroke-dasharray:none;stroke-opacity:1"
         id="path3612"
         inkscape:connector-curvature="0" />
      <path
         d="m -1.5076895,150.11706 c 0,0 -1.1987389,0.63959 -1.711325,1.23366 -0.00388,0.005 -0.093133,0.0272 -0.320675,0.0148 -0.2271888,-0.0123 -0.6508749,0.0254 -0.9800166,-0.14676 -0.3298472,-0.17215 -0.6187722,-0.46425 -0.6187722,-0.46425 0,0 0.5221111,0.0716 1.0414,0.0367 0.3866444,-0.0261 1.0551583,-0.28646 1.0791472,-0.29845 0.5598583,-0.27376 1.5102416,-0.37571 1.5102416,-0.37571"
         style="fill:#ffffff;fill-opacity:1;fill-rule:nonzero;stroke:none;stroke-width:0.35277778"
         id="path3616"
         inkscape:connector-curvature="0" />
      <path
         d="m -1.5076895,150.11706 c 0,0 -1.1987389,0.63959 -1.711325,1.23366 -0.00388,0.005 -0.093133,0.0272 -0.320675,0.0148 -0.2271888,-0.0123 -0.6508749,0.0254 -0.9800166,-0.14676 -0.3298472,-0.17215 -0.6187722,-0.46425 -0.6187722,-0.46425 0,0 0.5221111,0.0716 1.0414,0.0367 0.3866444,-0.0261 1.0551583,-0.28646 1.0791472,-0.29845 0.5598583,-0.27376 1.5102416,-0.37571 1.5102416,-0.37571 z"
         style="fill:none;stroke:#ffffff;stroke-width:0.50694168;stroke-linecap:butt;stroke-linejoin:round;stroke-miterlimit:3.86400008;stroke-dasharray:none;stroke-opacity:1"
         id="path3620"
         inkscape:connector-curvature="0" />
      <path
         d="m -3.5717922,150.11378 c -0.5020028,0.35595 -1.0879666,0.45896 -1.0879666,0.45896 0,0 0.7704666,-0.0296 1.0516305,-0.15839 0.7768166,-0.35666 1.7674166,-0.49354 1.7674166,-0.49354 -0.1329972,-0.13511 -0.4522611,-0.20532 -0.4522611,-0.20532 0.00212,0.0127 0.022578,0.0593 0.021872,0.0727 -0.00635,0.12382 -0.1150055,0.21872 -0.2423583,0.21166 -0.1273528,-0.007 -0.225425,-0.11289 -0.219075,-0.23671 0.00141,-0.0243 0.024694,-0.0695 0.015522,-0.0695 -0.1202972,-0.002 -0.3527777,0.0639 -0.8547805,0.42016"
         style="fill:#ffffff;fill-opacity:1;fill-rule:nonzero;stroke:none;stroke-width:0.35277778"
         id="path3624"
         inkscape:connector-curvature="0" />
      <path
         d="m -3.5717922,150.11378 c -0.5020028,0.35595 -1.0879666,0.45896 -1.0879666,0.45896 0,0 0.7704666,-0.0296 1.0516305,-0.15839 0.7768166,-0.35666 1.7674166,-0.49354 1.7674166,-0.49354 -0.1329972,-0.13511 -0.4522611,-0.20532 -0.4522611,-0.20532 0.00212,0.0127 0.022578,0.0593 0.021872,0.0727 -0.00635,0.12382 -0.1150055,0.21872 -0.2423583,0.21166 -0.1273528,-0.007 -0.225425,-0.11289 -0.219075,-0.23671 0.00141,-0.0243 0.024694,-0.0695 0.015522,-0.0695 -0.1202972,-0.002 -0.3527777,0.0639 -0.8547805,0.42016 z"
         style="fill:none;stroke:#ffffff;stroke-width:0.50694168;stroke-linecap:butt;stroke-linejoin:round;stroke-miterlimit:3.86400008;stroke-dasharray:none;stroke-opacity:1"
         id="path3628"
         inkscape:connector-curvature="0" />
      <path
         d="m -8.8458198,153.18492 c -0.012347,-0.002 0.4226278,-0.14041 0.6565194,-0.55809 0,0 0.3570111,0.44943 0.7866945,0.55915 0.00564,0.001 -0.8995834,0.0885 -1.4432139,-0.001"
         style="fill:#ffffff;fill-opacity:1;fill-rule:nonzero;stroke:none;stroke-width:0.35277778"
         id="path3632"
         inkscape:connector-curvature="0" />
      <path
         d="m -8.8458198,153.18492 c -0.012347,-0.002 0.4226278,-0.14041 0.6565194,-0.55809 0,0 0.3570111,0.44943 0.7866945,0.55915 0.00564,0.001 -0.8995834,0.0885 -1.4432139,-0.001 z"
         style="fill:none;stroke:#ffffff;stroke-width:0.50694168;stroke-linecap:butt;stroke-linejoin:round;stroke-miterlimit:3.86400008;stroke-dasharray:none;stroke-opacity:1"
         id="path3636"
         inkscape:connector-curvature="0" />
      <path
         d="m -10.217385,153.04303 c 0,0 0.6487583,-0.51611 0.9165166,-0.90593 0.1640417,-0.23813 0.974725,-0.94157 1.5599833,-1.03082 0.00176,-7.1e-4 0.5379861,1.35961 2.416175,1.64853 0,0 -1.5585722,0.74965 -4.8383469,0.3048 z"
         style="fill:#ffffff;fill-opacity:1;fill-rule:nonzero;stroke:none;stroke-width:0.35277778"
         id="path3640"
         inkscape:connector-curvature="0" />
      <path
         d="m -10.217385,153.04303 c 0,0 0.6487583,-0.51611 0.9165166,-0.90593 0.1640417,-0.23813 0.974725,-0.94157 1.5599833,-1.03082 0.00176,-7.1e-4 0.5379861,1.35961 2.416175,1.64853 0,0 -1.5585722,0.74965 -4.8383469,0.3048 z"
         style="fill:none;stroke:#ffffff;stroke-width:0.50694168;stroke-linecap:butt;stroke-linejoin:round;stroke-miterlimit:3.86400008;stroke-dasharray:none;stroke-opacity:1"
         id="path3644"
         inkscape:connector-curvature="0" />
      <path
         d="m -7.4081093,150.97237 c 0,0 0.6427611,-0.35172 1.7822333,-0.26317 0.3330222,0.0261 0.6847416,0.81209 1.6061972,0.9017 0.3859389,0.0377 0.6081889,-0.007 0.6081889,-0.007 0,0 -0.7390695,0.83996 -1.3603111,0.87242 -0.6522861,0.0335 -1.4301611,-0.037 -2.2694194,-0.91969 -0.1961445,-0.20673 -0.3668889,-0.58385 -0.3668889,-0.58385"
         style="fill:#ffffff;fill-opacity:1;fill-rule:nonzero;stroke:none;stroke-width:0.35277778"
         id="path3648"
         inkscape:connector-curvature="0" />
      <path
         d="m -7.4081093,150.97237 c 0,0 0.6427611,-0.35172 1.7822333,-0.26317 0.3330222,0.0261 0.6847416,0.81209 1.6061972,0.9017 0.3859389,0.0377 0.6081889,-0.007 0.6081889,-0.007 0,0 -0.7390695,0.83996 -1.3603111,0.87242 -0.6522861,0.0335 -1.4301611,-0.037 -2.2694194,-0.91969 -0.1961445,-0.20673 -0.3668889,-0.58385 -0.3668889,-0.58385 z"
         style="fill:none;stroke:#ffffff;stroke-width:0.50694168;stroke-linecap:butt;stroke-linejoin:round;stroke-miterlimit:3.86400008;stroke-dasharray:none;stroke-opacity:1"
         id="path3652"
         inkscape:connector-curvature="0" />
      <path
         d="m -12.739428,152.63871 c 0,0 1.144058,0.0617 1.591733,-0.049 0.448028,-0.11006 1.145822,-0.26352 1.416403,-0.42368 0,0 -0.770467,1.03646 -1.831622,0.97931 -1.061508,-0.0568 -1.176514,-0.50659 -1.176514,-0.50659"
         style="fill:#ffffff;fill-opacity:1;fill-rule:nonzero;stroke:none;stroke-width:0.35277778"
         id="path3656"
         inkscape:connector-curvature="0" />
      <path
         d="m -12.739428,152.63871 c 0,0 1.144058,0.0617 1.591733,-0.049 0.448028,-0.11006 1.145822,-0.26352 1.416403,-0.42368 0,0 -0.770467,1.03646 -1.831622,0.97931 -1.061508,-0.0568 -1.176514,-0.50659 -1.176514,-0.50659 z"
         style="fill:none;stroke:#ffffff;stroke-width:0.50694168;stroke-linecap:butt;stroke-linejoin:round;stroke-miterlimit:3.86400008;stroke-dasharray:none;stroke-opacity:1"
         id="path3660"
         inkscape:connector-curvature="0" />
      <path
         d="m -5.8871432,148.53665 c 0,0 -0.035631,1.0474 0.5295194,1.20579 0.1453445,0.0406 0.2345972,0.049 0.2345972,0.049 0,0 0.1382889,0.0956 0.89535,-0.21837 0.4445,-0.18415 1.0971389,-0.12665 1.0971389,-0.12665 0,0 0.8173861,-0.042 1.2752916,0.48401 0.00388,0.004 0.97155001,-0.0889 1.25306667,-0.0536 0.28151666,0.0353 1.07244442,0.10478 1.73813603,0.85972 0,0 -0.82267771,-0.66287 -1.75048325,-0.62547 -0.64628885,0.0265 -1.14582215,0.38206 -1.17439715,0.40111 -0.028575,0.0183 -1.0611556,0.7493 -1.2816417,1.00612 -0.2204861,0.25717 -0.8025694,1.0929 -2.693811,1.59596 -1.3705417,0.36478 -3.4995555,0.3295 -3.4995555,0.3295 0,0 -0.857956,0.28998 -1.540933,0.27305 -0.683331,-0.0162 -0.930628,-0.30515 -0.930628,-0.30515 0,0 -1.195917,-0.13124 -1.520825,-1.06963 0,0 1.247775,0.0603 1.296458,0.0494 0.04868,-0.0106 1.783645,-0.0116 2.8264558,-0.80927 0.9542638,-0.72954 0.9461499,-1.19909 0.9461499,-1.19909 0,0 -0.051153,-0.55704 -0.6258277,-0.80292 -0.64135,-0.27446 -0.6110111,-0.67487 -0.6110111,-0.67487 0,0 -0.6501699,-0.53234 -0.6265329,-1.25659 0,0 0.1545162,0.17886 0.4222745,0.34572 l 0.5640917,0.30092 c -0.5192889,-0.37147 -1.4418032,-1.47391 -1.5508112,-2.30364 0,0 0.575028,0.82938 1.0766779,1.0481 0.028928,0.0123 -1.0886719,-1.08902 -1.1172469,-1.87007 0,0 0.486127,0.75212 1.0787941,1.05269 0.029633,0.0148 -1.0491611,-1.36031 -0.9937751,-2.4324 0,0 0.8318501,0.86571 0.9747251,1.143 -0.086783,-0.2854 -0.5069421,-2.00378 -0.4201581,-2.79365 0,0 0.3333748,2.1149 2.1702886,3.47698 0.00988,0.007 -1.881011,-2.65501 -1.4950722,-4.2471 l 0.1407584,0.55387 0.4600222,0.97437 c 0.00529,0.007 0.2448277,-1.71874 0.4212166,-1.78259 0,0 -0.3055055,2.17452 1.0523361,3.71263 1.3585472,1.53812 1.3793611,3.70911 1.3793611,3.70911"
         style="fill:#ffffff;fill-opacity:1;fill-rule:nonzero;stroke:none;stroke-width:0.35277778"
         id="path3664"
         inkscape:connector-curvature="0" />
      <path
         d="m -5.8871432,148.53665 c 0,0 -0.035631,1.0474 0.5295194,1.20579 0.1453445,0.0406 0.2345972,0.049 0.2345972,0.049 0,0 0.1382889,0.0956 0.89535,-0.21837 0.4445,-0.18415 1.0971389,-0.12665 1.0971389,-0.12665 0,0 0.8173861,-0.042 1.2752916,0.48401 0.00388,0.004 0.97155001,-0.0889 1.25306667,-0.0536 0.28151666,0.0353 1.07244442,0.10478 1.73813603,0.85972 0,0 -0.82267771,-0.66287 -1.75048325,-0.62547 -0.64628885,0.0265 -1.14582215,0.38206 -1.17439715,0.40111 -0.028575,0.0183 -1.0611556,0.7493 -1.2816417,1.00612 -0.2204861,0.25717 -0.8025694,1.0929 -2.693811,1.59596 -1.3705417,0.36478 -3.4995555,0.3295 -3.4995555,0.3295 0,0 -0.857956,0.28998 -1.540933,0.27305 -0.683331,-0.0162 -0.930628,-0.30515 -0.930628,-0.30515 0,0 -1.195917,-0.13124 -1.520825,-1.06963 0,0 1.247775,0.0603 1.296458,0.0494 0.04868,-0.0106 1.783645,-0.0116 2.8264558,-0.80927 0.9542638,-0.72954 0.9461499,-1.19909 0.9461499,-1.19909 0,0 -0.051153,-0.55704 -0.6258277,-0.80292 -0.64135,-0.27446 -0.6110111,-0.67487 -0.6110111,-0.67487 0,0 -0.6501699,-0.53234 -0.6265329,-1.25659 0,0 0.1545162,0.17886 0.4222745,0.34572 l 0.5640917,0.30092 c -0.5192889,-0.37147 -1.4418032,-1.47391 -1.5508112,-2.30364 0,0 0.575028,0.82938 1.0766779,1.0481 0.028928,0.0123 -1.0886719,-1.08902 -1.1172469,-1.87007 0,0 0.486127,0.75212 1.0787941,1.05269 0.029633,0.0148 -1.0491611,-1.36031 -0.9937751,-2.4324 0,0 0.8318501,0.86571 0.9747251,1.143 -0.086783,-0.2854 -0.5069421,-2.00378 -0.4201581,-2.79365 0,0 0.3333748,2.1149 2.1702886,3.47698 0.00988,0.007 -1.881011,-2.65501 -1.4950722,-4.2471 l 0.1407584,0.55387 0.4600222,0.97437 c 0.00529,0.007 0.2448277,-1.71874 0.4212166,-1.78259 0,0 -0.3055055,2.17452 1.0523361,3.71263 1.3585472,1.53812 1.3793611,3.70911 1.3793611,3.70911 z"
         style="fill:none;stroke:#ffffff;stroke-width:0.66816109;stroke-linecap:butt;stroke-linejoin:round;stroke-miterlimit:3.86400008;stroke-dasharray:none;stroke-opacity:1"
         id="path3668"
         inkscape:connector-curvature="0" />
      <path
         d="m -9.8410795,147.60837 0.8449028,0.0452 -0.03175,0.61806 -0.8449028,-0.0455 z"
         style="fill:#ffffff;fill-opacity:1;fill-rule:nonzero;stroke:none;stroke-width:0.35277778"
         id="path3672"
         inkscape:connector-curvature="0" />
      <path
         d="m -9.8410795,147.60837 0.8449028,0.0452 -0.03175,0.61806 -0.8449028,-0.0455 z"
         style="fill:none;stroke:#ffffff;stroke-width:0.50694168;stroke-linecap:butt;stroke-linejoin:round;stroke-miterlimit:3.86400008;stroke-dasharray:none;stroke-opacity:1"
         id="path3676"
         inkscape:connector-curvature="0" />
      <path
         d="m -11.390053,151.4671 c 0.136525,-2.65712 2.4620361,-4.6923 5.1939471,-4.54554 2.7319111,0.14675 4.8358777,2.42005 4.6989999,5.07718 -0.136525,2.65712 -2.4620361,4.69265 -5.1935943,4.54554 -2.7319111,-0.14676 -4.8358777,-2.41971 -4.6993527,-5.07718"
         style="fill:#ffffff;fill-opacity:1;fill-rule:nonzero;stroke:none;stroke-width:0.35277778"
         id="path3688"
         inkscape:connector-curvature="0" />
      <path
         d="m -11.390053,151.4671 c 0.136525,-2.65712 2.4620361,-4.6923 5.1939471,-4.54554 2.7319111,0.14675 4.8358777,2.42005 4.6989999,5.07718 -0.136525,2.65712 -2.4620361,4.69265 -5.1935943,4.54554 -2.7319111,-0.14676 -4.8358777,-2.41971 -4.6993527,-5.07718 z"
         style="fill:none;stroke:#ffffff;stroke-width:0.66816109;stroke-linecap:butt;stroke-linejoin:round;stroke-miterlimit:3.86400008;stroke-dasharray:none;stroke-opacity:1"
         id="path3692"
         inkscape:connector-curvature="0" />
      <path
         inkscape:connector-curvature="0"
         id="path3712"
         style="fill:url(#linearGradient3710);stroke:none;stroke-width:0.35277778"
         d="m -11.394851,151.45952 c -0.136878,2.65006 1.9617973,4.91772 4.6863,5.06377 v 0 c 2.7252083,0.14675 5.0443693,-1.88278 5.1805415,-4.5332 v 0 c 0.1361723,-2.65077 -1.9621499,-4.91772 -4.6862998,-5.06412 v 0 c -0.093133,-0.005 -0.1855612,-0.008 -0.2776362,-0.008 v 0 c -2.6031471,7e-4 -4.7713195,1.98155 -4.9029055,4.54131" />
      <path
         d="m -9.8534884,147.62483 0.8449028,0.0452 -0.03175,0.61806 -0.84455,-0.0452 z"
         style="fill:#ffffff;fill-opacity:1;fill-rule:nonzero;stroke:none;stroke-width:0.35277778"
         id="path3716"
         inkscape:connector-curvature="0" />
      <path
         d="m -9.8534884,147.62483 0.8449028,0.0452 -0.03175,0.61806 -0.84455,-0.0452 z"
         style="fill:none;stroke:#ffffff;stroke-width:0.04974167;stroke-linecap:butt;stroke-linejoin:miter;stroke-miterlimit:3.86400008;stroke-dasharray:none;stroke-opacity:1"
         id="path3720"
         inkscape:connector-curvature="0" />
      <path
         d="m -5.8863671,148.53566 c 0,0 -0.035631,1.0474 0.5298722,1.20544 0.1453445,0.0406 0.2342444,0.0494 0.2342444,0.0494 0,0 0.1386417,0.0956 0.8957028,-0.21837 0.4441472,-0.18415 1.0971389,-0.12665 1.0971389,-0.12665 0,0 0.8173861,-0.0416 1.2749388,0.48401 0.00388,0.004 0.97155001,-0.0889 1.25306667,-0.0536 0.28151666,0.0353 1.07244442,0.10478 1.73848883,0.85972 0,0 -0.82267774,-0.66251 -1.75048327,-0.62512 -0.64628883,0.0261 -1.14582223,0.38206 -1.17474993,0.40076 -0.028575,0.0183 -1.0608028,0.7493 -1.2816417,1.00612 -0.2201333,0.25717 -0.8025694,1.09255 -2.693811,1.59632 -1.3705417,0.36442 -3.4992027,0.32914 -3.4992027,0.32914 0,0 -0.8579559,0.28998 -1.5409329,0.2734 -0.683331,-0.0166 -0.930981,-0.3055 -0.930981,-0.3055 0,0 -1.195564,-0.13124 -1.520472,-1.06963 0,0 1.247422,0.0603 1.296458,0.0497 0.04904,-0.0109 1.783292,-0.012 2.8261029,-0.80928 0.9542638,-0.72989 0.9461499,-1.19944 0.9461499,-1.19944 0,0 -0.0508,-0.55704 -0.6258277,-0.80292 -0.64135,-0.27446 -0.6110111,-0.67487 -0.6110111,-0.67487 0,0 -0.650169,-0.53234 -0.626533,-1.25659 0,0 0.1545163,0.17886 0.4222746,0.34607 0,0 0.5658556,0.30163 0.5644445,0.30057 -0.5196417,-0.37112 -1.4418031,-1.47426 -1.5511641,-2.30364 0,0 0.575381,0.82938 1.076678,1.0481 0.028928,0.0124 -1.088319,-1.08902 -1.117247,-1.87042 0,0 0.48648,0.75247 1.079147,1.05304 0.029633,0.0148 -1.049161,-1.36031 -0.994481,-2.43276 0,0 0.526345,1.34514 1.9018254,2.2793 0.00847,0.006 -1.4400384,-1.71097 -1.3469054,-3.92959 0,0 0.3333749,2.11455 2.1706415,3.47698 0.00988,0.007 -1.8810111,-2.65501 -1.495425,-4.2471 0,0 0.1813278,1.85103 1.7522472,3.81741 0.00564,0.007 -1.4329833,-1.94804 -0.7831666,-3.8354 0,0 -0.2522361,1.93816 1.1056055,3.47627 1.3581944,1.53812 1.3790083,3.70911 1.3790083,3.70911"
         style="fill:#231f20;fill-opacity:1;fill-rule:nonzero;stroke:none;stroke-width:0.35277778"
         id="path3732"
         inkscape:connector-curvature="0" />
      <path
         d="m -5.8863671,148.53566 c 0,0 -0.035631,1.0474 0.5298722,1.20544 0.1453445,0.0406 0.2342444,0.0494 0.2342444,0.0494 0,0 0.1386417,0.0956 0.8957028,-0.21837 0.4441472,-0.18415 1.0971389,-0.12665 1.0971389,-0.12665 0,0 0.8173861,-0.0416 1.2749388,0.48401 0.00388,0.004 0.97155001,-0.0889 1.25306667,-0.0536 0.28151666,0.0353 1.07244442,0.10478 1.73848883,0.85972 0,0 -0.82267774,-0.66251 -1.75048327,-0.62512 -0.64628883,0.0261 -1.14582223,0.38206 -1.17474993,0.40076 -0.028575,0.0183 -1.0608028,0.7493 -1.2816417,1.00612 -0.2201333,0.25717 -0.8025694,1.09255 -2.693811,1.59632 -1.3705417,0.36442 -3.4992027,0.32914 -3.4992027,0.32914 0,0 -0.8579559,0.28998 -1.5409329,0.2734 -0.683331,-0.0166 -0.930981,-0.3055 -0.930981,-0.3055 0,0 -1.195564,-0.13124 -1.520472,-1.06963 0,0 1.247422,0.0603 1.296458,0.0497 0.04904,-0.0109 1.783292,-0.012 2.8261029,-0.80928 0.9542638,-0.72989 0.9461499,-1.19944 0.9461499,-1.19944 0,0 -0.0508,-0.55704 -0.6258277,-0.80292 -0.64135,-0.27446 -0.6110111,-0.67487 -0.6110111,-0.67487 0,0 -0.650169,-0.53234 -0.626533,-1.25659 0,0 0.1545163,0.17886 0.4222746,0.34607 0,0 0.5658556,0.30163 0.5644445,0.30057 -0.5196417,-0.37112 -1.4418031,-1.47426 -1.5511641,-2.30364 0,0 0.575381,0.82938 1.076678,1.0481 0.028928,0.0124 -1.088319,-1.08902 -1.117247,-1.87042 0,0 0.48648,0.75247 1.079147,1.05304 0.029633,0.0148 -1.049161,-1.36031 -0.994481,-2.43276 0,0 0.526345,1.34514 1.9018254,2.2793 0.00847,0.006 -1.4400384,-1.71097 -1.3469054,-3.92959 0,0 0.3333749,2.11455 2.1706415,3.47698 0.00988,0.007 -1.8810111,-2.65501 -1.495425,-4.2471 0,0 0.1813278,1.85103 1.7522472,3.81741 0.00564,0.007 -1.4329833,-1.94804 -0.7831666,-3.8354 0,0 -0.2522361,1.93816 1.1056055,3.47627 1.3581944,1.53812 1.3790083,3.70911 1.3790083,3.70911 z"
         style="fill:none;stroke:#231f20;stroke-width:0.03104444;stroke-linecap:butt;stroke-linejoin:miter;stroke-miterlimit:3.86400008;stroke-dasharray:none;stroke-opacity:1"
         id="path3736"
         inkscape:connector-curvature="0" />
      <path
         d="m -12.738264,152.63776 c 0,0 1.143353,0.0614 1.591381,-0.0487 0.448027,-0.11078 1.145822,-0.26388 1.416755,-0.42404 0,0 -0.770819,1.03646 -1.831975,0.97931 -1.061155,-0.0568 -1.176161,-0.50659 -1.176161,-0.50659"
         style="fill:#008a43;fill-opacity:1;fill-rule:nonzero;stroke:none;stroke-width:0.35277778"
         id="path3740"
         inkscape:connector-curvature="0" />
      <path
         d="m -12.738264,152.63776 c 0,0 1.143353,0.0614 1.591381,-0.0487 0.448027,-0.11078 1.145822,-0.26388 1.416755,-0.42404 0,0 -0.770819,1.03646 -1.831975,0.97931 -1.061155,-0.0568 -1.176161,-0.50659 -1.176161,-0.50659 z"
         style="fill:none;stroke:#008a43;stroke-width:0.03104444;stroke-linecap:butt;stroke-linejoin:miter;stroke-miterlimit:3.86400008;stroke-dasharray:none;stroke-opacity:1"
         id="path3744"
         inkscape:connector-curvature="0" />
      <path
         d="m -7.4073332,150.97141 c 0,0 0.6431139,-0.35172 1.7822333,-0.26317 0.333375,0.0261 0.6847416,0.81174 1.6061972,0.90205 0.3862916,0.0374 0.6085416,-0.008 0.6085416,-0.008 0,0 -0.7390694,0.83996 -1.360311,0.87207 -0.6522861,0.0339 -1.4305139,-0.0367 -2.2694194,-0.91934 -0.1961445,-0.20673 -0.3672417,-0.58385 -0.3672417,-0.58385"
         style="fill:#ffffff;fill-opacity:1;fill-rule:nonzero;stroke:none;stroke-width:0.35277778"
         id="path3748"
         inkscape:connector-curvature="0" />
      <path
         d="m -10.216608,153.04208 c 0,0 0.6487583,-0.51611 0.9165166,-0.90593 0.1640417,-0.23813 0.974725,-0.94157 1.5599833,-1.03082 0.00176,-3.5e-4 0.5383389,1.35961 2.4165278,1.64853 0,0 -1.5585722,0.75001 -4.8383467,0.3048 z"
         style="fill:#013b82;fill-opacity:1;fill-rule:nonzero;stroke:none;stroke-width:0.35277778"
         id="path3752"
         inkscape:connector-curvature="0" />
      <path
         d="m -10.216608,153.04208 c 0,0 0.6487583,-0.51611 0.9165166,-0.90593 0.1640417,-0.23813 0.974725,-0.94157 1.5599833,-1.03082 0.00176,-3.5e-4 0.5383389,1.35961 2.4165278,1.64853 0,0 -1.5585722,0.75001 -4.8383467,0.3048 z"
         style="fill:none;stroke:#013b82;stroke-width:0.04974167;stroke-linecap:butt;stroke-linejoin:miter;stroke-miterlimit:3.86400008;stroke-dasharray:none;stroke-opacity:1"
         id="path3756"
         inkscape:connector-curvature="0" />
      <path
         d="m -8.8450437,153.18397 c -0.012347,-0.002 0.4226278,-0.14041 0.6565194,-0.55809 0,0 0.3570111,0.44943 0.7866945,0.55915 0.006,10e-4 -0.8995834,0.0889 -1.4432139,-0.001"
         style="fill:#ffffff;fill-opacity:1;fill-rule:nonzero;stroke:none;stroke-width:0.35277778"
         id="path3760"
         inkscape:connector-curvature="0" />
      <path
         d="m -3.5710161,150.11275 c -0.5020028,0.35631 -1.0872611,0.45896 -1.0872611,0.45896 0,0 0.7697611,-0.0293 1.0512778,-0.15839 0.7764638,-0.35666 1.7674166,-0.49354 1.7674166,-0.49354 -0.1329972,-0.13476 -0.4519083,-0.20532 -0.4519083,-0.20532 0.00141,0.0131 0.021872,0.0593 0.021167,0.0727 -0.00635,0.12382 -0.1146527,0.21872 -0.2420055,0.21202 -0.1273528,-0.007 -0.2257778,-0.11289 -0.219075,-0.23707 0.00106,-0.0243 0.024694,-0.0695 0.015169,-0.0695 -0.1202972,-0.002 -0.3527777,0.0642 -0.8547805,0.42016"
         style="fill:#ffffff;fill-opacity:1;fill-rule:nonzero;stroke:none;stroke-width:0.35277778"
         id="path3764"
         inkscape:connector-curvature="0" />
      <path
         d="m -1.5069133,150.11607 c 0,0 -1.1990916,0.63959 -1.711325,1.23366 -0.00388,0.005 -0.093133,0.0272 -0.3203222,0.0148 -0.2271889,-0.012 -0.6505222,0.0254 -0.9803694,-0.14676 -0.3298472,-0.17215 -0.6184194,-0.46425 -0.6184194,-0.46425 0,0 0.5217583,0.0716 1.0410472,0.0367 0.3866444,-0.0261 1.0551583,-0.28646 1.0791472,-0.2981 0.5602111,-0.27411 1.5102416,-0.37606 1.5102416,-0.37606"
         style="fill:#df1b22;fill-opacity:1;fill-rule:nonzero;stroke:none;stroke-width:0.35277778"
         id="path3768"
         inkscape:connector-curvature="0" />
      <path
         d="m -9.0289468,144.86677 c 0,0 1.1482916,1.34126 1.7455444,1.76001 1.1267722,0.79022 1.1472333,1.76883 1.1267722,2.17099 0,0 -0.809625,-1.18604 -1.2022666,-1.61043 -0.3929945,-0.42439 -1.3624278,-1.40053 -1.67005,-2.32057"
         style="fill:#ffffff;fill-opacity:1;fill-rule:nonzero;stroke:none;stroke-width:0.35277778"
         id="path3772"
         inkscape:connector-curvature="0" />
      <path
         d="m -8.2349851,150.96792 c 0,0 0.5041194,-0.49389 0.059972,-1.16311 -0.00423,-0.006 0.2589389,0.0836 0.5115278,0.10654 0.00741,3.5e-4 0.011994,-0.121 0.0127,-0.13758 -0.5563306,-0.16334 -1.3454944,-0.45085 -1.4862528,-0.8001 0,0 0.9168695,0.44097 1.5155333,0.48542 0,0 0.047978,-0.14993 0.046919,-0.14993 -0.5954889,-0.14746 -1.8340916,-0.51682 -2.0835055,-1.08268 0,0 1.2950472,0.7045 2.1625277,0.80822 0.00529,0.001 0.0635,-0.15029 0.0635,-0.15029 -0.5559778,-0.16016 -1.7370777,-0.74295 -2.3061083,-1.7272 0,0 1.3913555,1.15112 2.4440444,1.45839 -0.00176,-0.001 0.1090083,-0.15064 0.1097139,-0.1524 -0.6152444,-0.32385 -2.0838583,-0.96203 -2.4031222,-2.01401 -0.006,-0.0198 1.3574889,1.2827 1.6647583,1.21849 0,0 -1.5247055,-1.2513 -1.6668749,-1.98472 0,0 2.5639888,2.54388 2.8183416,2.7051 0.1248833,0.0797 0.2966861,0.41945 0.2966861,0.41945 0,0 0.56515,1.39453 1.5564555,1.73002 0.020108,0.007 -1.2961055,-0.17639 -1.8404416,-0.0363 -0.5909028,0.15204 -1.476375,0.46672 -1.476375,0.46672"
         style="fill:#008a43;fill-opacity:1;fill-rule:nonzero;stroke:none;stroke-width:0.35277778"
         id="path3776"
         inkscape:connector-curvature="0" />
      <g
         style="fill:#001a6f;fill-opacity:1"
         id="g5128">
        <path
           inkscape:connector-curvature="0"
           id="path3780"
           style="fill:#001a6f;fill-opacity:1;fill-rule:nonzero;stroke:none;stroke-width:0.35277778"
           d="m 10.166739,154.01846 h 1.327503 v -5.03767 H 9.665089 l 0.50165,0.64841 z" />
        <path
           inkscape:connector-curvature="0"
           id="path3784"
           style="fill:#001a6f;fill-opacity:1;fill-rule:nonzero;stroke:none;stroke-width:0.35277778"
           d="m 23.906949,154.01846 h 1.327503 v -5.03767 h -1.829153 l 0.50165,0.64841 z" />
        <path
           inkscape:connector-curvature="0"
           id="path3796"
           style="fill:#001a6f;fill-opacity:1;fill-rule:nonzero;stroke:none;stroke-width:0.35277778"
           d="m 13.973504,154.01846 h -1.312686 l -0.01517,-4.40866 -0.48648,-0.62901 h 0.48648 1.343025 1.704975 c 0.869598,0 1.477081,0.0907 1.832328,0.272 0.233892,0.121 0.411339,0.27975 0.533047,0.47589 0.130881,0.19615 0.196145,0.41522 0.196145,0.65723 0,0.47554 -0.149578,0.84561 -0.448734,1.10243 -0.186619,0.15875 -0.430036,0.2794 -0.738363,0.3623 0.243063,0.0681 0.429683,0.14358 0.560916,0.22684 0.121356,0.0755 0.233539,0.18873 0.327025,0.33972 0.07479,0.121 0.130881,0.23425 0.168275,0.34008 0.02822,0.11324 0.05609,0.27905 0.07479,0.49847 0.0374,0.36231 0.08431,0.61913 0.149578,0.76271 l -1.486606,0.008 c -0.04657,-0.121 -0.09349,-0.36265 -0.140052,-0.72531 -0.0374,-0.29457 -0.102659,-0.52105 -0.20567,-0.67204 -0.09349,-0.15875 -0.233891,-0.27975 -0.420864,-0.37007 -0.243064,-0.10583 -0.598311,-0.15134 -1.056216,-0.15134 h -1.050573 v 1.911 z m 0.01517,-2.80952 h 1.845028 c 0.308681,0 0.533047,-0.0378 0.663928,-0.10584 0.196497,-0.11324 0.299155,-0.30973 0.299155,-0.58878 0,-0.30974 -0.149577,-0.50624 -0.448733,-0.58949 -0.102658,-0.0303 -0.271286,-0.0452 -0.51435,-0.0452 h -1.845028 z" />
        <path
           inkscape:connector-curvature="0"
           id="path3800"
           style="fill:#001a6f;fill-opacity:1;fill-rule:nonzero;stroke:none;stroke-width:0.35277778"
           d="m 19.100953,148.98079 h 1.287639 0.03034 v 2.82469 c 0,0.36266 0.03739,0.60431 0.05609,0.71755 0.04692,0.22648 0.186973,0.38488 0.411339,0.46814 0.233892,0.0832 0.636059,0.12841 1.215672,0.12841 h 1.271059 v 0.89888 h -1.411464 c -0.663928,0 -1.150056,-0.0226 -1.449211,-0.0907 -0.691797,-0.15875 -1.121833,-0.51364 -1.299281,-1.05727 -0.07514,-0.21132 -0.112183,-0.56656 -0.112183,-1.05763 v -0.091 l -0.0028,-2.09267 -0.50165,-0.64841 z" />
        <path
           inkscape:connector-curvature="0"
           id="path3804"
           style="fill:#001a6f;fill-opacity:1;fill-rule:nonzero;stroke:none;stroke-width:0.35277778"
           d="m 3.0492087,154.01846 2.2500166,-4.39279 -0.4991805,-0.64488 h 0.8297333 0.9997722 0.523875 l 2.5802166,5.03767 H 8.1817725 l -0.6074833,-1.16311 h -2.365375 l -0.6078361,1.16311 z m 3.3471555,-3.82164 -0.8882944,1.76001 h 1.776236 z" />
        <path
           inkscape:connector-curvature="0"
           id="path3808"
           style="fill:#001a6f;fill-opacity:1;fill-rule:nonzero;stroke:none;stroke-width:0.35277778"
           d="m 27.704435,150.32528 v 3.69323 h -1.271411 v -5.03767 h 1.701447 l 2.477558,3.75356 v -3.11326 l -0.4953,-0.6403 h 0.4953 1.223434 0.0388 v 5.03767 h -0.0388 -1.217084 -0.370769 z" />
        <path
           inkscape:connector-curvature="0"
           id="path3812"
           style="fill:#001a6f;fill-opacity:1;fill-rule:nonzero;stroke:none;stroke-width:0.35277778"
           d="m 34.357806,148.98079 v 5.03767 H 33.02995 l -3.52e-4,-4.38926 -0.50165,-0.64841 h 0.502002 z m 0.04657,2.49237 2.384072,-2.49237 h 1.748366 l -2.608438,2.49237 2.48673,2.5453 h -1.748014 z" />
      </g>
    </g>
  </g>
</svg>
