<?xml version="1.0" encoding="UTF-8"?>
<!-- Generator: Adobe Illustrator 12.0.0, SVG Export Plug-In  -->
<!DOCTYPE svg PUBLIC "-//W3C//DTD SVG 1.1//EN" "http://www.w3.org/Graphics/SVG/1.1/DTD/svg11.dtd">
<svg version="1.1" xmlns="http://www.w3.org/2000/svg" xmlns:xlink="http://www.w3.org/1999/xlink" xmlns:a="http://ns.adobe.com/AdobeSVGViewerExtensions/3.0/" width="301" height="104" viewBox="-0.9379883 -0.4116211 301 104" enable-background="new -0.9379883 -0.4116211 301 104" xml:space="preserve">
<defs>
</defs>
<polygon opacity="0" fill-rule="evenodd" clip-rule="evenodd" fill="#0A0A4F" points="0,0 299.9995117,0 299.9995117,103.012207   0,103.012207 0,0 "/>
<path fill-rule="evenodd" clip-rule="evenodd" fill="#132E62" d="M36.3759766,12.1552734L13.777832,73.2348633h16.3999023  l3.3613281-10.4599609h21.7817383l3.3613281,10.4599609h16.3999023L52.4838867,12.1552734H36.3759766L36.3759766,12.1552734z   M171.0766602,12.1552734h14.5087891v61.0795898h-14.5087891V12.1552734L171.0766602,12.1552734z M122.4624023,29.3295898  h14.5083008v25.3105469c0,2.5175781-0.2016602,4.7167969,1.8261719,6.6289063  c1.7734375,1.6728516,4.5083008,2.2353516,7.0214844,1.5820313c1.5869141-0.4130859,3.0859375-1.3115234,4.1992188-2.7216797  c1.1137695-1.4101563,1.8413086-3.3320313,1.887207-5.7939453V29.3295898h14.5078125v43.9052734h-14.1640625V67.331543  c-1.0869141,2.0224609-2.8129883,3.6972656-4.8969727,4.9550781c-2.0839844,1.2587891-4.5258789,2.1025391-7.0439453,2.4619141  c-2.5185547,0.359375-5.1132813,0.2353516-7.5029297-0.4404297c-2.3891602-0.6767578-4.5737305-1.9033203-6.2714844-3.7509766  c-3.4379883-3.7402344-4.0834961-9.1396484-4.0708008-12.171875V29.3295898L122.4624023,29.3295898z M76.6655273,73.2348633  h41.7099609V62.3881836H94.7441406l22.081543-22.2114258v-10.847168H78.215332v10.847168h20.6611328L76.6655273,62.3881836  V73.2348633L76.6655273,73.2348633z M37.4394531,50.6367188l6.9907227-21.7529297l6.9902344,21.7529297H37.4394531  L37.4394531,50.6367188z"/>
<polygon fill-rule="evenodd" clip-rule="evenodd" fill="#98017E" points="253.2749023,64.4819336 263.2719727,64.4819336   263.2719727,70.6508789 266.8188477,70.6508789 266.8188477,73.2104492 253.2749023,73.2104492 253.2749023,64.4819336 "/>
<polygon fill-rule="evenodd" clip-rule="evenodd" fill="#C53296" points="239.519043,59.0209961 253.7084961,59.0209961   253.7084961,70.3432617 248.0014648,70.3432617 248.0014648,73.2104492 239.519043,73.2104492 239.519043,59.0209961 "/>
<polygon fill-rule="evenodd" clip-rule="evenodd" fill="#8FADCB" points="258.1821289,82.527832 254.6342773,82.527832   254.6342773,79.2885742 249.3901367,79.2885742 249.3901367,76.9750977 258.1821289,76.9750977 258.1821289,82.527832 "/>
<polygon fill-rule="evenodd" clip-rule="evenodd" fill="#66C3B7" points="260.6499023,76.9750977 248.0014648,76.9750977   248.0014648,70.3432617 253.7084961,70.3432617 253.7084961,73.2104492 260.6499023,73.2104492 260.6499023,76.9750977 "/>
<polygon fill-rule="evenodd" clip-rule="evenodd" fill="#FF4D00" points="243.065918,79.2885742 254.6342773,79.2885742   254.6342773,90.8569336 243.065918,90.8569336 243.065918,79.2885742 "/>
<polygon fill-rule="evenodd" clip-rule="evenodd" fill="#F9A518" points="273.7602539,69.5717773 263.2651367,69.5717773   263.2651367,64.4819336 253.7084961,64.4819336 253.7084961,62.168457 260.8041992,62.168457 260.8041992,53.5307617   273.7602539,53.5307617 273.7602539,69.5717773 "/>
<polygon fill-rule="evenodd" clip-rule="evenodd" fill="#98017E" points="266.8188477,70.6508789 263.2651367,70.6508789   263.2651367,64.4819336 253.7084961,64.4819336 253.7084961,73.2104492 266.8188477,73.2104492 266.8188477,70.6508789 "/>
<path fill-rule="evenodd" clip-rule="evenodd" fill="#FF0000" d="M266.8188477,69.5717773h-3.546875v1.0791016h3.546875V69.5717773  L266.8188477,69.5717773z M266.8188477,73.2104492h-6.1689453v0.8203125h6.1689453V73.2104492L266.8188477,73.2104492z"/>
<polygon fill-rule="evenodd" clip-rule="evenodd" fill="#8FADCB" points="273.7602539,71.4956055 266.8188477,71.4956055   266.8188477,69.5717773 273.7602539,69.5717773 273.7602539,71.4956055 "/>
<polygon fill-rule="evenodd" clip-rule="evenodd" fill="#C4D4DA" points="276.2524414,60.0874023 273.7602539,60.0874023   273.7602539,67.6459961 276.2524414,67.6459961 276.2524414,60.0874023 "/>
<polygon fill-rule="evenodd" clip-rule="evenodd" fill="#0480B7" points="278.4018555,61.7329102 278.4018555,49.5893555   277.496582,49.5893555 277.496582,46.4643555 278.4018555,46.4643555 278.4018555,43.1083984 263.324707,43.1083984   263.3266602,53.5307617 273.7602539,53.5307617 273.7602539,60.0874023 276.2524414,60.0874023 276.2524414,61.7329102   278.4018555,61.7329102 "/>
<polygon fill-rule="evenodd" clip-rule="evenodd" fill="#0F499E" points="253.7084961,50.4541016 253.7084961,62.168457   260.8041992,62.168457 260.8041992,53.5307617 263.3266602,53.5307617 263.3266602,50.4541016 253.7084961,50.4541016 "/>
<polygon fill-rule="evenodd" clip-rule="evenodd" fill="#CCEBDD" points="253.7084961,40.8295898 236.8481445,40.8295898   236.8481445,50.4838867 235.9692383,50.4838867 235.9692383,59.0209961 253.7084961,59.0209961 253.7084961,40.8295898 "/>
<polygon fill-rule="evenodd" clip-rule="evenodd" fill="#357579" points="236.8481445,50.4838867 225.0249023,50.4838867   225.0249023,45.7543945 225.7290039,45.7543945 225.7290039,40.8295898 236.8481445,40.8295898 236.8481445,50.4838867 "/>
<polygon fill-rule="evenodd" clip-rule="evenodd" fill="#FFB300" points="225.7290039,45.7543945 208.6479492,45.7543945   208.6479492,39.5009766 225.7290039,39.5009766 225.7290039,45.7543945 "/>
<polygon fill-rule="evenodd" clip-rule="evenodd" fill="#4EBDD7" points="214.6147461,20.1035156 240.8696289,20.1035156   240.8696289,40.8295898 225.7290039,40.8295898 225.7290039,39.5009766 214.6147461,39.5009766 214.6147461,20.1035156 "/>
<polygon fill-rule="evenodd" clip-rule="evenodd" fill="#4F53A2" points="249.043457,18.7573242 236.9262695,18.7573242   236.9262695,20.1035156 240.8696289,20.1035156 240.8696289,40.8295898 253.7084961,40.8295898 253.7084961,33.5292969   261.1606445,33.5292969 261.1606445,24.4311523 249.043457,24.4311523 249.043457,18.7573242 "/>
<polygon fill-rule="evenodd" clip-rule="evenodd" fill="#4DAC26" points="236.9262695,13.0834961 227.7905273,13.0834961   227.7905273,24.3349609 236.9262695,24.3349609 236.9262695,13.0834961 "/>
<polygon fill-rule="evenodd" clip-rule="evenodd" fill="#CCE968" points="249.043457,13.5639648 255.715332,13.5639648   255.715332,24.4311523 249.043457,24.4311523 249.043457,13.5639648 "/>
<polygon fill-rule="evenodd" clip-rule="evenodd" fill="#B3E0AC" points="253.7084961,50.4541016 263.3266602,50.4541016   263.3266602,38.8564453 261.1606445,38.8564453 261.1606445,33.5292969 253.7084961,33.5292969 253.7084961,50.4541016 "/>
<polygon fill-rule="evenodd" clip-rule="evenodd" fill="#8DD2C4" points="261.1606445,24.4311523 270.4897461,24.4311523   270.4897461,38.8564453 261.1606445,38.8564453 261.1606445,24.4311523 "/>
<polygon fill-rule="evenodd" clip-rule="evenodd" fill="#4F53A2" points="257.1313477,19.8188477 261.1606445,19.8188477   261.1606445,23.2246094 257.1313477,23.2246094 257.1313477,19.8188477 "/>
<polygon fill-rule="evenodd" clip-rule="evenodd" fill="#F90033" points="282.9487305,49.5893555 277.496582,49.5893555   277.496582,46.4643555 282.9487305,46.4643555 282.9487305,49.5893555 "/>
<polygon fill-rule="evenodd" clip-rule="evenodd" fill="#96D38C" points="278.4018555,46.4643555 285.1430664,46.4643555   285.1430664,42.0761719 278.4018555,42.0761719 278.4018555,46.4643555 "/>
<polygon fill-rule="evenodd" clip-rule="evenodd" fill="#8DC3D5" points="274.1723633,43.1083984 278.4018555,43.1083984   278.4018555,42.0761719 285.1430664,42.0761719 285.1430664,43.1083984 286.4067383,43.1083984 286.4067383,40.3476563   278.8266602,40.3476563 278.8266602,38.8847656 274.1723633,38.8847656 274.1723633,43.1083984 "/>
<polygon fill-rule="evenodd" clip-rule="evenodd" fill="#FFD900" points="286.4067383,40.3476563 278.8266602,40.3476563   278.8266602,36.2915039 286.4067383,36.2915039 286.4067383,40.3476563 "/>
<polygon fill-rule="evenodd" clip-rule="evenodd" fill="#FFFF1A" points="275.8344727,27.1162109 270.4897461,27.1162109   270.4897461,38.8564453 263.3266602,38.8564453 263.3266602,43.1083984 274.1723633,43.1083984 274.1723633,38.8847656   275.8344727,38.8847656 275.8344727,27.1162109 "/>
<polygon fill-rule="evenodd" clip-rule="evenodd" fill="#F64F95" points="275.8344727,29.3100586 281.8188477,29.3100586   281.8188477,32.2358398 280.4887695,32.2358398 280.4887695,36.2915039 278.8266602,36.2915039 278.8266602,38.8847656   275.8344727,38.8847656 275.8344727,29.3100586 "/>
<polygon fill-rule="evenodd" clip-rule="evenodd" fill="#73147A" points="280.4887695,32.2358398 285.8081055,32.2358398   285.8081055,36.2915039 280.4887695,36.2915039 280.4887695,32.2358398 "/>
<path fill-rule="evenodd" clip-rule="evenodd" fill="#16A5C9" d="M13.59375,89.7905273v-11.03125h1.4614258v9.7294922h5.4321289  v1.3017578H13.59375L13.59375,89.7905273z M179.1323242,87.4047852l1.3378906-0.2109375  c0.0751953,0.5371094,0.2851563,0.9472656,0.6298828,1.2353516c0.3417969,0.2851563,0.8212891,0.4287109,1.4404297,0.4287109  c0.6220703,0,1.0839844-0.1279297,1.3847656-0.3798828c0.3007813-0.2539063,0.4521484-0.5517578,0.4521484-0.8916016  c0-0.3076172-0.1337891-0.546875-0.4013672-0.7236328c-0.1845703-0.1210938-0.6464844-0.2724609-1.3837891-0.4570313  c-0.9912109-0.2519531-1.6826172-0.4677734-2.0654297-0.6533203c-0.3828125-0.1816406-0.6757813-0.4365234-0.8730469-0.7597656  c-0.1982422-0.3232422-0.2978516-0.6806641-0.2978516-1.0712891c0-0.3564453,0.0820313-0.6855469,0.2460938-0.9882813  c0.1621094-0.3056641,0.3857422-0.5576172,0.6650391-0.7578125c0.2109375-0.1542969,0.4990234-0.2880859,0.8613281-0.3955078  c0.3642578-0.1083984,0.7548828-0.1621094,1.1708984-0.1621094c0.6269531,0,1.1767578,0.0927734,1.6513672,0.2724609  c0.4755859,0.1796875,0.8251953,0.4238281,1.0507813,0.7314453c0.2255859,0.3115234,0.3798828,0.7216797,0.4648438,1.2382813  l-1.3232422,0.1826172c-0.0615234-0.4111328-0.2353516-0.7324219-0.5234375-0.9628906  c-0.2880859-0.2314453-0.6962891-0.3466797-1.2226563-0.3466797c-0.6220703,0-1.0654297,0.1025391-1.3310547,0.3076172  c-0.2666016,0.2050781-0.4003906,0.4472656-0.4003906,0.7216797c0,0.1777344,0.0566406,0.3339844,0.1669922,0.4755859  c0.1103516,0.1464844,0.2832031,0.2646484,0.5185547,0.3623047c0.1367188,0.0478516,0.5351563,0.1640625,1.1972656,0.34375  c0.9580078,0.2568359,1.6259766,0.4648438,2.0039063,0.6289063c0.3798828,0.1621094,0.6777344,0.4013672,0.8935547,0.7119141  s0.3232422,0.6962891,0.3232422,1.1582031c0,0.4521484-0.1328125,0.8759766-0.3955078,1.2763672  c-0.2646484,0.3984375-0.6445313,0.7070313-1.1396484,0.9248047c-0.4960938,0.21875-1.0585938,0.3261719-1.6855469,0.3261719  c-1.0400391,0-1.8310547-0.2158203-2.3759766-0.6474609C179.628418,88.8920898,179.2817383,88.2524414,179.1323242,87.4047852  L179.1323242,87.4047852z M176.3168945,88.8041992c-0.5029297,0.4267578-0.9863281,0.7265625-1.4482422,0.9042969  c-0.4648438,0.1748047-0.9628906,0.2617188-1.4951172,0.2617188c-0.8779297,0-1.5507813-0.2128906-2.0234375-0.6416016  c-0.4707031-0.4296875-0.7070313-0.9785156-0.7070313-1.6445313c0-0.3925781,0.0878906-0.75,0.2675781-1.0732422  c0.1767578-0.3232422,0.4111328-0.5830078,0.6982422-0.7783203c0.2900391-0.1953125,0.6142578-0.34375,0.9765625-0.4443359  c0.2646484-0.0693359,0.6650391-0.1386719,1.2021484-0.203125c1.09375-0.1308594,1.9003906-0.2851563,2.4169922-0.4667969  c0.0048828-0.1855469,0.0078125-0.3037109,0.0078125-0.3525391c0-0.5517578-0.1289063-0.9423828-0.3857422-1.1660156  c-0.3447266-0.3076172-0.8603516-0.4599609-1.5410156-0.4599609c-0.6367188,0-1.1074219,0.1103516-1.4130859,0.3339844  c-0.3027344,0.2236328-0.5263672,0.6191406-0.6728516,1.1865234l-1.3222656-0.1816406  c0.1201172-0.5654297,0.3183594-1.0253906,0.5927734-1.3720703c0.2753906-0.3496094,0.6757813-0.6191406,1.1972656-0.8066406  s1.125-0.2822266,1.8134766-0.2822266c0.6826172,0,1.2353516,0.0820313,1.6611328,0.2412109  c0.4267578,0.1621094,0.7402344,0.3623047,0.9433594,0.6064453c0.2001953,0.2441406,0.3388672,0.5498047,0.4208984,0.921875  c0.0439453,0.2314453,0.0664063,0.6474609,0.0664063,1.2480469v1.8056641c0,1.2617188,0.0283203,2.0576172,0.0878906,2.3886719  c0.0566406,0.3339844,0.171875,0.6552734,0.3417969,0.9609375h-1.4160156  C176.4477539,89.5102539,176.355957,89.1821289,176.3168945,88.8041992L176.3168945,88.8041992z M176.2045898,85.7788086  c-0.4931641,0.203125-1.2304688,0.3720703-2.2119141,0.5136719c-0.5576172,0.0791016-0.953125,0.1689453-1.1816406,0.2695313  c-0.2314453,0.1005859-0.4111328,0.2460938-0.5341797,0.4414063c-0.1259766,0.1933594-0.1904297,0.40625-0.1904297,0.6425781  c0,0.3623047,0.1386719,0.6630859,0.4111328,0.9042969c0.2724609,0.2382813,0.6728516,0.359375,1.1992188,0.359375  c0.5214844,0,0.9873047-0.1132813,1.3925781-0.3417969c0.40625-0.2285156,0.7060547-0.5419922,0.8964844-0.9375  c0.1464844-0.3056641,0.21875-0.7578125,0.21875-1.3535156V85.7788086L176.2045898,85.7788086z M165.9555664,89.7905273V81.800293  h1.2177734v1.2089844c0.3105469-0.5644531,0.5986328-0.9394531,0.8632813-1.1191406  c0.2617188-0.1796875,0.5517578-0.2724609,0.8681641-0.2724609c0.4570313,0,0.9189453,0.1464844,1.3916016,0.4365234  l-0.4677734,1.2587891c-0.328125-0.1982422-0.6591797-0.2958984-0.9912109-0.2958984  c-0.2978516,0-0.5625,0.0908203-0.7988281,0.2675781c-0.2363281,0.1796875-0.4033203,0.4267578-0.5029297,0.7421875  c-0.1513672,0.4804688-0.2265625,1.0068359-0.2265625,1.5800781v4.1835938H165.9555664L165.9555664,89.7905273z   M162.5522461,80.3178711v-1.5585938h1.3564453v1.5585938H162.5522461L162.5522461,80.3178711z M162.5522461,89.7905273V81.800293  h1.3564453v7.9902344H162.5522461L162.5522461,89.7905273z M159.4448242,87.2172852l1.3994141,0.171875  c-0.2207031,0.8193359-0.6289063,1.4541016-1.2246094,1.90625c-0.5986328,0.4492188-1.3613281,0.6748047-2.2890625,0.6748047  c-1.1689453,0-2.0957031-0.359375-2.7792969-1.078125c-0.6855469-0.7197266-1.0273438-1.7294922-1.0273438-3.0283203  c0-1.3466797,0.3466797-2.3886719,1.0380859-3.1308594c0.6933594-0.7431641,1.5898438-1.1152344,2.6943359-1.1152344  c1.0683594,0,1.9414063,0.3642578,2.6171875,1.0917969c0.6777344,0.7265625,1.0166016,1.7519531,1.0166016,3.0693359  c0,0.0820313-0.0019531,0.203125-0.0068359,0.3623047h-5.9589844c0.0488281,0.8779297,0.2978516,1.5507813,0.7441406,2.015625  c0.4472656,0.4677734,1.0019531,0.7011719,1.6699219,0.7011719c0.4960938,0,0.9199219-0.1308594,1.2714844-0.3925781  C158.9614258,88.2055664,159.2387695,87.7895508,159.4448242,87.2172852L159.4448242,87.2172852z M154.9985352,85.0258789h4.4619141  c-0.0595703-0.6699219-0.2314453-1.1757813-0.5117188-1.5097656c-0.4316406-0.5214844-0.9912109-0.7832031-1.6767578-0.7832031  c-0.6220703,0-1.1455078,0.2070313-1.5693359,0.6230469C155.2788086,83.7729492,155.0444336,84.3295898,154.9985352,85.0258789  L154.9985352,85.0258789z M150.5214844,89.7905273v-11.03125h1.3540039v11.03125H150.5214844L150.5214844,89.7905273z   M147.1337891,80.3178711v-1.5585938h1.355957v1.5585938H147.1337891L147.1337891,80.3178711z M147.1337891,89.7905273V81.800293  h1.355957v7.9902344H147.1337891L147.1337891,89.7905273z M138.8808594,87.4047852l1.3383789-0.2109375  c0.074707,0.5371094,0.2851563,0.9472656,0.6293945,1.2353516c0.3413086,0.2851563,0.8217773,0.4287109,1.440918,0.4287109  c0.621582,0,1.0839844-0.1279297,1.3842773-0.3798828c0.300293-0.2539063,0.4521484-0.5517578,0.4521484-0.8916016  c0-0.3076172-0.1337891-0.546875-0.4008789-0.7236328c-0.1845703-0.1210938-0.6469727-0.2724609-1.3842773-0.4570313  c-0.9912109-0.2519531-1.6821289-0.4677734-2.0649414-0.6533203c-0.3828125-0.1816406-0.6757813-0.4365234-0.8735352-0.7597656  s-0.2978516-0.6806641-0.2978516-1.0712891c0-0.3564453,0.0820313-0.6855469,0.246582-0.9882813  c0.1616211-0.3056641,0.3852539-0.5576172,0.6650391-0.7578125c0.2109375-0.1542969,0.4985352-0.2880859,0.8608398-0.3955078  c0.3647461-0.1083984,0.7548828-0.1621094,1.1708984-0.1621094c0.6269531,0,1.1762695,0.0927734,1.6518555,0.2724609  c0.4750977,0.1796875,0.8242188,0.4238281,1.050293,0.7314453c0.2260742,0.3115234,0.3803711,0.7216797,0.4648438,1.2382813  l-1.3227539,0.1826172c-0.0615234-0.4111328-0.2363281-0.7324219-0.5239258-0.9628906  c-0.2875977-0.2314453-0.6958008-0.3466797-1.2226563-0.3466797c-0.621582,0-1.065918,0.1025391-1.3305664,0.3076172  c-0.2670898,0.2050781-0.4003906,0.4472656-0.4003906,0.7216797c0,0.1777344,0.0566406,0.3339844,0.1669922,0.4755859  c0.1103516,0.1464844,0.2822266,0.2646484,0.5185547,0.3623047c0.1362305,0.0478516,0.534668,0.1640625,1.1972656,0.34375  c0.9580078,0.2568359,1.6254883,0.4648438,2.003418,0.6289063c0.3798828,0.1621094,0.6777344,0.4013672,0.8935547,0.7119141  s0.3237305,0.6962891,0.3237305,1.1582031c0,0.4521484-0.1333008,0.8759766-0.3955078,1.2763672  c-0.2646484,0.3984375-0.6445313,0.7070313-1.140625,0.9248047c-0.4956055,0.21875-1.0581055,0.3261719-1.6845703,0.3261719  c-1.0405273,0-1.831543-0.2158203-2.3759766-0.6474609C139.3769531,88.8920898,139.0297852,88.2524414,138.8808594,87.4047852  L138.8808594,87.4047852z M136.065918,88.8041992c-0.503418,0.4267578-0.9863281,0.7265625-1.4487305,0.9042969  c-0.4648438,0.1748047-0.9633789,0.2617188-1.4946289,0.2617188c-0.878418,0-1.5517578-0.2128906-2.0239258-0.6416016  c-0.4702148-0.4296875-0.706543-0.9785156-0.706543-1.6445313c0-0.3925781,0.0874023-0.75,0.2670898-1.0732422  c0.1772461-0.3232422,0.4111328-0.5830078,0.6987305-0.7783203c0.2900391-0.1953125,0.6137695-0.34375,0.9760742-0.4443359  c0.2646484-0.0693359,0.6650391-0.1386719,1.2021484-0.203125c1.0942383-0.1308594,1.9003906-0.2851563,2.4169922-0.4667969  c0.0048828-0.1855469,0.0073242-0.3037109,0.0073242-0.3525391c0-0.5517578-0.128418-0.9423828-0.3852539-1.1660156  c-0.3442383-0.3076172-0.8603516-0.4599609-1.5410156-0.4599609c-0.6367188,0-1.1069336,0.1103516-1.4125977,0.3339844  c-0.3032227,0.2236328-0.5263672,0.6191406-0.6728516,1.1865234l-1.3227539-0.1816406  c0.1206055-0.5654297,0.3183594-1.0253906,0.5932617-1.3720703c0.2749023-0.3496094,0.675293-0.6191406,1.1967773-0.8066406  s1.125-0.2822266,1.8134766-0.2822266c0.6831055,0,1.2353516,0.0820313,1.6616211,0.2412109  c0.4267578,0.1621094,0.7397461,0.3623047,0.9428711,0.6064453c0.2001953,0.2441406,0.3388672,0.5498047,0.4213867,0.921875  c0.043457,0.2314453,0.0664063,0.6474609,0.0664063,1.2480469v1.8056641c0,1.2617188,0.0283203,2.0576172,0.0874023,2.3886719  c0.0566406,0.3339844,0.1723633,0.6552734,0.3417969,0.9609375h-1.4155273  C136.1967773,89.5102539,136.1044922,89.1821289,136.065918,88.8041992L136.065918,88.8041992z M135.953125,85.7788086  c-0.4931641,0.203125-1.2304688,0.3720703-2.2119141,0.5136719c-0.5571289,0.0791016-0.9526367,0.1689453-1.1811523,0.2695313  c-0.2314453,0.1005859-0.4111328,0.2460938-0.534668,0.4414063c-0.1254883,0.1933594-0.1899414,0.40625-0.1899414,0.6425781  c0,0.3623047,0.1386719,0.6630859,0.4111328,0.9042969c0.2724609,0.2382813,0.6728516,0.359375,1.1992188,0.359375  c0.5214844,0,0.9863281-0.1132813,1.3925781-0.3417969c0.4057617-0.2285156,0.7060547-0.5419922,0.8959961-0.9375  c0.1464844-0.3056641,0.21875-0.7578125,0.21875-1.3535156V85.7788086L135.953125,85.7788086z M125.7045898,89.7905273V81.800293  h1.2172852v1.2089844c0.3110352-0.5644531,0.5986328-0.9394531,0.8632813-1.1191406  c0.2617188-0.1796875,0.5522461-0.2724609,0.8681641-0.2724609c0.4570313,0,0.9194336,0.1464844,1.3920898,0.4365234  l-0.4677734,1.2587891c-0.3286133-0.1982422-0.6601563-0.2958984-0.9912109-0.2958984  c-0.2978516,0-0.5625,0.0908203-0.7988281,0.2675781c-0.2363281,0.1796875-0.4033203,0.4267578-0.503418,0.7421875  c-0.1513672,0.4804688-0.2260742,1.0068359-0.2260742,1.5800781v4.1835938H125.7045898L125.7045898,89.7905273z   M115.5512695,89.7905273v-11.03125h4.1401367c0.8427734,0,1.5180664,0.1123047,2.0268555,0.3330078  c0.5107422,0.2236328,0.9091797,0.5683594,1.1967773,1.0332031c0.2875977,0.4619141,0.434082,0.9472656,0.434082,1.4560547  c0,0.4697266-0.128418,0.9140625-0.3852539,1.3310547c-0.2543945,0.4160156-0.6420898,0.7519531-1.1582031,1.0087891  c0.6674805,0.1953125,1.1787109,0.5292969,1.5385742,0.9990234c0.359375,0.4726563,0.5390625,1.0302734,0.5390625,1.671875  c0,0.5166016-0.1103516,0.9970703-0.3286133,1.4414063s-0.487793,0.7861328-0.809082,1.0273438  s-0.7246094,0.4208984-1.2070313,0.5449219c-0.4829102,0.1230469-1.0761719,0.1845703-1.7802734,0.1845703H115.5512695  L115.5512695,89.7905273z M117.0126953,83.3950195h2.3862305c0.6445313,0,1.109375-0.0439453,1.3920898-0.1279297  c0.3696289-0.1103516,0.6499023-0.2929688,0.8374023-0.5498047s0.2822266-0.578125,0.2822266-0.9638672  c0-0.3642578-0.0874023-0.6884766-0.2617188-0.9658203c-0.1772461-0.2792969-0.4291992-0.4697266-0.7529297-0.5722656  c-0.3261719-0.1025391-0.8857422-0.1542969-1.6796875-0.1542969h-2.2036133V83.3950195L117.0126953,83.3950195z   M117.0126953,88.4887695h2.7456055c0.4726563,0,0.8041992-0.0185547,0.9941406-0.0517578  c0.3364258-0.0615234,0.6162109-0.1621094,0.8422852-0.3027344c0.2260742-0.1386719,0.4111328-0.3447266,0.5576172-0.6113281  c0.1435547-0.2695313,0.2182617-0.578125,0.2182617-0.9306641c0-0.4101563-0.1054688-0.7675781-0.315918-1.0732422  c-0.2104492-0.3027344-0.503418-0.515625-0.878418-0.6396484c-0.3725586-0.1201172-0.9121094-0.1826172-1.6132813-0.1826172  h-2.550293V88.4887695L117.0126953,88.4887695z M102.9116211,87.4047852l1.3378906-0.2109375  c0.074707,0.5371094,0.2851563,0.9472656,0.6293945,1.2353516c0.3417969,0.2851563,0.8217773,0.4287109,1.440918,0.4287109  c0.621582,0,1.0839844-0.1279297,1.3842773-0.3798828c0.3007813-0.2539063,0.4521484-0.5517578,0.4521484-0.8916016  c0-0.3076172-0.1333008-0.546875-0.4003906-0.7236328c-0.1850586-0.1210938-0.6474609-0.2724609-1.3847656-0.4570313  c-0.9912109-0.2519531-1.6821289-0.4677734-2.0649414-0.6533203c-0.3828125-0.1816406-0.6757813-0.4365234-0.8735352-0.7597656  s-0.2978516-0.6806641-0.2978516-1.0712891c0-0.3564453,0.0825195-0.6855469,0.246582-0.9882813  c0.1621094-0.3056641,0.3852539-0.5576172,0.6655273-0.7578125c0.2104492-0.1542969,0.4980469-0.2880859,0.8603516-0.3955078  c0.3647461-0.1083984,0.7548828-0.1621094,1.1713867-0.1621094c0.6264648,0,1.1762695,0.0927734,1.6513672,0.2724609  s0.824707,0.4238281,1.050293,0.7314453c0.2260742,0.3115234,0.3803711,0.7216797,0.465332,1.2382813l-1.3232422,0.1826172  c-0.0615234-0.4111328-0.2358398-0.7324219-0.5239258-0.9628906c-0.2875977-0.2314453-0.6958008-0.3466797-1.2226563-0.3466797  c-0.621582,0-1.065918,0.1025391-1.3300781,0.3076172c-0.2670898,0.2050781-0.4008789,0.4472656-0.4008789,0.7216797  c0,0.1777344,0.0566406,0.3339844,0.1669922,0.4755859c0.1103516,0.1464844,0.2827148,0.2646484,0.519043,0.3623047  c0.1357422,0.0478516,0.5341797,0.1640625,1.1967773,0.34375c0.9580078,0.2568359,1.6259766,0.4648438,2.003418,0.6289063  c0.3798828,0.1621094,0.6782227,0.4013672,0.894043,0.7119141c0.215332,0.3105469,0.3232422,0.6962891,0.3232422,1.1582031  c0,0.4521484-0.1333008,0.8759766-0.3955078,1.2763672c-0.2646484,0.3984375-0.6445313,0.7070313-1.1401367,0.9248047  c-0.4960938,0.21875-1.0585938,0.3261719-1.6850586,0.3261719c-1.0405273,0-1.831543-0.2158203-2.3759766-0.6474609  C103.4072266,88.8920898,103.0605469,88.2524414,102.9116211,87.4047852L102.9116211,87.4047852z M100.0961914,88.8041992  c-0.503418,0.4267578-0.9863281,0.7265625-1.4482422,0.9042969c-0.465332,0.1748047-0.9633789,0.2617188-1.4951172,0.2617188  c-0.878418,0-1.5512695-0.2128906-2.0239258-0.6416016c-0.4702148-0.4296875-0.706543-0.9785156-0.706543-1.6445313  c0-0.3925781,0.0874023-0.75,0.2670898-1.0732422c0.1772461-0.3232422,0.4111328-0.5830078,0.6987305-0.7783203  c0.2905273-0.1953125,0.6137695-0.34375,0.9760742-0.4443359c0.2646484-0.0693359,0.6650391-0.1386719,1.2021484-0.203125  c1.0942383-0.1308594,1.9008789-0.2851563,2.4169922-0.4667969c0.0048828-0.1855469,0.0078125-0.3037109,0.0078125-0.3525391  c0-0.5517578-0.128418-0.9423828-0.3857422-1.1660156c-0.34375-0.3076172-0.8603516-0.4599609-1.5410156-0.4599609  c-0.6367188,0-1.1069336,0.1103516-1.4125977,0.3339844c-0.3027344,0.2236328-0.5263672,0.6191406-0.6728516,1.1865234  L94.65625,84.0786133c0.1206055-0.5654297,0.3183594-1.0253906,0.5932617-1.3720703  c0.2749023-0.3496094,0.675293-0.6191406,1.1967773-0.8066406s1.125-0.2822266,1.8134766-0.2822266  c0.6831055,0,1.2353516,0.0820313,1.6616211,0.2412109c0.4267578,0.1621094,0.7402344,0.3623047,0.9428711,0.6064453  c0.2001953,0.2441406,0.3393555,0.5498047,0.4213867,0.921875c0.043457,0.2314453,0.0664063,0.6474609,0.0664063,1.2480469  v1.8056641c0,1.2617188,0.0283203,2.0576172,0.0874023,2.3886719c0.0566406,0.3339844,0.1723633,0.6552734,0.3417969,0.9609375  h-1.4150391C100.2275391,89.5102539,100.1347656,89.1821289,100.0961914,88.8041992L100.0961914,88.8041992z M99.9833984,85.7788086  c-0.4931641,0.203125-1.2304688,0.3720703-2.2114258,0.5136719c-0.5576172,0.0791016-0.953125,0.1689453-1.1816406,0.2695313  c-0.2314453,0.1005859-0.4111328,0.2460938-0.5341797,0.4414063c-0.1259766,0.1933594-0.1904297,0.40625-0.1904297,0.6425781  c0,0.3623047,0.1386719,0.6630859,0.4111328,0.9042969c0.2724609,0.2382813,0.6728516,0.359375,1.199707,0.359375  c0.5214844,0,0.9863281-0.1132813,1.3920898-0.3417969s0.7060547-0.5419922,0.8964844-0.9375  c0.1464844-0.3056641,0.2182617-0.7578125,0.2182617-1.3535156V85.7788086L99.9833984,85.7788086z M91.7792969,87.2172852  l1.3999023,0.171875c-0.2207031,0.8193359-0.6293945,1.4541016-1.2250977,1.90625  c-0.5986328,0.4492188-1.3613281,0.6748047-2.2885742,0.6748047c-1.168457,0-2.0957031-0.359375-2.7792969-1.078125  c-0.6855469-0.7197266-1.0273438-1.7294922-1.0273438-3.0283203c0-1.3466797,0.3466797-2.3886719,1.0375977-3.1308594  c0.6938477-0.7431641,1.5898438-1.1152344,2.6943359-1.1152344c1.0688477,0,1.9418945,0.3642578,2.6176758,1.0917969  c0.6777344,0.7265625,1.0170898,1.7519531,1.0170898,3.0693359c0,0.0820313-0.0024414,0.203125-0.0078125,0.3623047h-5.9589844  c0.0488281,0.8779297,0.2978516,1.5507813,0.7451172,2.015625c0.4467773,0.4677734,1.0014648,0.7011719,1.6694336,0.7011719  c0.4956055,0,0.9194336-0.1308594,1.2714844-0.3925781C91.2963867,88.2055664,91.5737305,87.7895508,91.7792969,87.2172852  L91.7792969,87.2172852z M87.3334961,85.0258789h4.4614258c-0.059082-0.6699219-0.2314453-1.1757813-0.5112305-1.5097656  c-0.4316406-0.5214844-0.9912109-0.7832031-1.6772461-0.7832031c-0.621582,0-1.1455078,0.2070313-1.5693359,0.6230469  C87.6132813,83.7729492,87.3793945,84.3295898,87.3334961,85.0258789L87.3334961,85.0258789z M81.1635742,89.7905273V81.800293  h1.2177734v1.2089844c0.3105469-0.5644531,0.5981445-0.9394531,0.862793-1.1191406  c0.262207-0.1796875,0.5522461-0.2724609,0.8681641-0.2724609c0.4575195,0,0.9194336,0.1464844,1.3920898,0.4365234  l-0.4672852,1.2587891c-0.3286133-0.1982422-0.6601563-0.2958984-0.9916992-0.2958984  c-0.2978516,0-0.5625,0.0908203-0.7988281,0.2675781c-0.2363281,0.1796875-0.402832,0.4267578-0.5029297,0.7421875  c-0.1518555,0.4804688-0.2260742,1.0068359-0.2260742,1.5800781v4.1835938H81.1635742L81.1635742,89.7905273z   M78.0761719,87.2172852l1.3999023,0.171875c-0.2207031,0.8193359-0.6293945,1.4541016-1.2250977,1.90625  c-0.5986328,0.4492188-1.3613281,0.6748047-2.2885742,0.6748047c-1.168457,0-2.0957031-0.359375-2.7792969-1.078125  c-0.6855469-0.7197266-1.0273438-1.7294922-1.0273438-3.0283203c0-1.3466797,0.3466797-2.3886719,1.0375977-3.1308594  c0.6938477-0.7431641,1.590332-1.1152344,2.6948242-1.1152344c1.0683594,0,1.9414063,0.3642578,2.6171875,1.0917969  c0.6782227,0.7265625,1.0170898,1.7519531,1.0170898,3.0693359c0,0.0820313-0.0024414,0.203125-0.0078125,0.3623047h-5.9589844  c0.0488281,0.8779297,0.2983398,1.5507813,0.7451172,2.015625c0.4467773,0.4677734,1.0014648,0.7011719,1.6694336,0.7011719  c0.4956055,0,0.9194336-0.1308594,1.2714844-0.3925781C77.5932617,88.2055664,77.8710938,87.7895508,78.0761719,87.2172852  L78.0761719,87.2172852z M73.6303711,85.0258789h4.4614258c-0.059082-0.6699219-0.2314453-1.1757813-0.5112305-1.5097656  c-0.4316406-0.5214844-0.9912109-0.7832031-1.6772461-0.7832031c-0.621582,0-1.1455078,0.2070313-1.5693359,0.6230469  C73.9101563,83.7729492,73.6762695,84.3295898,73.6303711,85.0258789L73.6303711,85.0258789z M75.0893555,80.8061523  l1.0014648-2.1064453h1.7749023l-1.6542969,2.1064453H75.0893555L75.0893555,80.8061523z M61.2885742,89.7905273l4.237793-11.03125  h1.5722656l4.5151367,11.03125H69.949707l-1.2871094-3.3417969h-4.612793l-1.2099609,3.3417969H61.2885742L61.2885742,89.7905273z   M64.4707031,85.2602539h3.7426758l-1.1533203-3.0546875c-0.3496094-0.9267578-0.6113281-1.6894531-0.7807617-2.2880859  c-0.1416016,0.7089844-0.3393555,1.4101563-0.5961914,2.1083984L64.4707031,85.2602539L64.4707031,85.2602539z   M50.6494141,87.4047852l1.3383789-0.2109375c0.074707,0.5371094,0.2851563,0.9472656,0.6293945,1.2353516  c0.3413086,0.2851563,0.8217773,0.4287109,1.440918,0.4287109c0.621582,0,1.0839844-0.1279297,1.3842773-0.3798828  c0.3007813-0.2539063,0.4521484-0.5517578,0.4521484-0.8916016c0-0.3076172-0.1333008-0.546875-0.4008789-0.7236328  c-0.1845703-0.1210938-0.6469727-0.2724609-1.3842773-0.4570313c-0.9912109-0.2519531-1.6821289-0.4677734-2.0649414-0.6533203  c-0.3828125-0.1816406-0.6757813-0.4365234-0.8735352-0.7597656s-0.2978516-0.6806641-0.2978516-1.0712891  c0-0.3564453,0.0825195-0.6855469,0.246582-0.9882813c0.1621094-0.3056641,0.3852539-0.5576172,0.6655273-0.7578125  c0.2104492-0.1542969,0.4980469-0.2880859,0.8603516-0.3955078c0.3647461-0.1083984,0.7548828-0.1621094,1.1708984-0.1621094  c0.6269531,0,1.1767578,0.0927734,1.6518555,0.2724609s0.8242188,0.4238281,1.050293,0.7314453  c0.2260742,0.3115234,0.3803711,0.7216797,0.4648438,1.2382813l-1.3227539,0.1826172  c-0.0615234-0.4111328-0.2363281-0.7324219-0.5239258-0.9628906c-0.2875977-0.2314453-0.6958008-0.3466797-1.2226563-0.3466797  c-0.621582,0-1.065918,0.1025391-1.3305664,0.3076172c-0.2670898,0.2050781-0.4003906,0.4472656-0.4003906,0.7216797  c0,0.1777344,0.0566406,0.3339844,0.1669922,0.4755859c0.1103516,0.1464844,0.2822266,0.2646484,0.5185547,0.3623047  c0.1362305,0.0478516,0.534668,0.1640625,1.1972656,0.34375c0.9580078,0.2568359,1.6259766,0.4648438,2.003418,0.6289063  c0.3798828,0.1621094,0.6777344,0.4013672,0.8935547,0.7119141s0.3237305,0.6962891,0.3237305,1.1582031  c0,0.4521484-0.1333008,0.8759766-0.3955078,1.2763672c-0.2646484,0.3984375-0.6445313,0.7070313-1.140625,0.9248047  c-0.4956055,0.21875-1.0581055,0.3261719-1.6845703,0.3261719c-1.0405273,0-1.831543-0.2158203-2.3759766-0.6474609  C51.1455078,88.8920898,50.7988281,88.2524414,50.6494141,87.4047852L50.6494141,87.4047852z M47.8344727,88.8041992  c-0.503418,0.4267578-0.9863281,0.7265625-1.4487305,0.9042969c-0.4648438,0.1748047-0.9628906,0.2617188-1.4946289,0.2617188  c-0.878418,0-1.5517578-0.2128906-2.0239258-0.6416016c-0.4702148-0.4296875-0.706543-0.9785156-0.706543-1.6445313  c0-0.3925781,0.0874023-0.75,0.2670898-1.0732422c0.1772461-0.3232422,0.4111328-0.5830078,0.6987305-0.7783203  c0.2900391-0.1953125,0.6137695-0.34375,0.9760742-0.4443359c0.2646484-0.0693359,0.6650391-0.1386719,1.2021484-0.203125  c1.0942383-0.1308594,1.9003906-0.2851563,2.4169922-0.4667969c0.0048828-0.1855469,0.0073242-0.3037109,0.0073242-0.3525391  c0-0.5517578-0.128418-0.9423828-0.3852539-1.1660156C47,82.8920898,46.4833984,82.7397461,45.8027344,82.7397461  c-0.6367188,0-1.1069336,0.1103516-1.4125977,0.3339844c-0.3032227,0.2236328-0.5263672,0.6191406-0.6728516,1.1865234  l-1.3227539-0.1816406c0.1206055-0.5654297,0.3183594-1.0253906,0.5932617-1.3720703  c0.2749023-0.3496094,0.675293-0.6191406,1.1967773-0.8066406s1.125-0.2822266,1.8134766-0.2822266  c0.6831055,0,1.2353516,0.0820313,1.6616211,0.2412109c0.4267578,0.1621094,0.7397461,0.3623047,0.9428711,0.6064453  c0.2001953,0.2441406,0.3388672,0.5498047,0.4213867,0.921875c0.043457,0.2314453,0.0664063,0.6474609,0.0664063,1.2480469  v1.8056641c0,1.2617188,0.0283203,2.0576172,0.0874023,2.3886719c0.0566406,0.3339844,0.1723633,0.6552734,0.3417969,0.9609375  h-1.4150391C47.965332,89.5102539,47.8730469,89.1821289,47.8344727,88.8041992L47.8344727,88.8041992z M47.7216797,85.7788086  c-0.4931641,0.203125-1.2304688,0.3720703-2.2119141,0.5136719c-0.5571289,0.0791016-0.9526367,0.1689453-1.1811523,0.2695313  c-0.2314453,0.1005859-0.4111328,0.2460938-0.5341797,0.4414063c-0.1259766,0.1933594-0.1904297,0.40625-0.1904297,0.6425781  c0,0.3623047,0.1386719,0.6630859,0.4111328,0.9042969c0.2724609,0.2382813,0.6728516,0.359375,1.199707,0.359375  c0.5209961,0,0.9863281-0.1132813,1.3920898-0.3417969s0.7060547-0.5419922,0.8964844-0.9375  c0.1459961-0.3056641,0.2182617-0.7578125,0.2182617-1.3535156V85.7788086L47.7216797,85.7788086z M34.0493164,89.7905273v-11.03125  h1.3535156v3.9580078c0.6318359-0.7324219,1.4306641-1.0996094,2.394043-1.0996094  c0.5908203,0,1.1044922,0.1181641,1.5410156,0.3515625c0.4365234,0.2314453,0.75,0.5546875,0.9375,0.9658203  s0.2827148,1.0097656,0.2827148,1.7900391v5.0654297h-1.3564453v-5.0654297c0-0.6748047-0.1464844-1.1679688-0.4389648-1.4765625  c-0.2929688-0.3085938-0.7089844-0.4648438-1.2460938-0.4648438c-0.4003906,0-0.7783203,0.1054688-1.1323242,0.3134766  c-0.3544922,0.2080078-0.6064453,0.4902344-0.7553711,0.8476563c-0.1513672,0.3544922-0.2260742,0.8476563-0.2260742,1.4746094  v4.3710938H34.0493164L34.0493164,89.7905273z M25.4780273,89.7905273V81.800293h1.2177734v1.1347656  c0.5878906-0.8779297,1.4355469-1.3173828,2.5424805-1.3173828c0.4829102,0,0.9248047,0.0869141,1.328125,0.2597656  c0.4057617,0.1738281,0.7060547,0.4003906,0.9067383,0.6826172c0.2026367,0.2802734,0.3413086,0.6142578,0.4238281,0.9990234  c0.0488281,0.2519531,0.0742188,0.6914063,0.0742188,1.3183594v4.9130859h-1.355957v-4.8623047  c0-0.5498047-0.0512695-0.9628906-0.1567383-1.2382813c-0.1054688-0.2714844-0.2929688-0.4902344-0.5600586-0.6523438  c-0.2695313-0.1640625-0.5830078-0.2460938-0.9453125-0.2460938c-0.5776367,0-1.0737305,0.1845703-1.4946289,0.5498047  c-0.4189453,0.3671875-0.6269531,1.0605469-0.6269531,2.0849609v4.3642578H25.4780273L25.4780273,89.7905273z   M22.0595703,80.3178711v-1.5585938h1.355957v1.5585938H22.0595703L22.0595703,80.3178711z M22.0595703,89.7905273V81.800293  h1.355957v7.9902344H22.0595703L22.0595703,89.7905273z"/>
</svg>